# xmcd
#
# Track frame offsets:
#	150
#	12675
#	26325
#	50365
#	60465
#	79992
#	93950
#	112772
#
# Disc length: 1623 seconds
#
# Revision: 0
# Processed by: cddbd v1.5PL3 Copyright (c) Steve Scherf et al.
# Submitted via: dBpowerAMP V4.0
#
DISCID=57065508
DTITLE=Geneva Red And The Roadsters - Alley Ways
DYEAR=1997
DGENRE=Blues
TTITLE0=Sugar Sweet
TTITLE1=Your Mind Is On Vacation
TTITLE2=Birk's Works
TTITLE3=Red's Romp
TTITLE4=Key To The Highway
TTITLE5=Things Ain't What They Used To Be
TTITLE6=Baby, What You Want Me To Do
TTITLE7=Vacation From The Blues
EXTD=
EXTT0=
EXTT1=
EXTT2=
EXTT3=
EXTT4=
EXTT5=
EXTT6=
EXTT7=
PLAYORDER=
